<!-- Generator: Adobe Illustrator 23.0.1, SVG Export Plug-In  -->
<svg version="1.1" xmlns="http://www.w3.org/2000/svg" xmlns:xlink="http://www.w3.org/1999/xlink" x="0px" y="0px"
	 width="899.106px" height="381.768px" viewBox="0 0 899.106 381.768" style="enable-background:new 0 0 899.106 381.768;"
	 xml:space="preserve">
<style type="text/css">
	.st0{fill:#FFFFFF;}
	.st1{opacity:0.46;fill:#00AEEA;}
	.st2{fill:#00AEEA;}
	.st3{opacity:0.9;fill:#00AEEA;}
	.st4{fill:#67C6F1;}
	.st5{fill:#EFE868;}
	.st6{fill:#EC63A0;}
	.st7{fill:#DADADA;}
	.st8{fill:#003F6E;}
</style>
<defs>
</defs>
<g>
	<g>
		<path class="st0" d="M395.366,153.176v74.057h-13.224v-33.959h-47.606v33.959h-13.224v-74.057h13.224v26.872h47.606v-26.872
			H395.366z"/>
		<path class="st0" d="M477.348,190.205c0,20.418-16.611,37.028-37.028,37.028s-37.027-16.611-37.027-37.028
			s16.609-37.028,37.027-37.028S477.348,169.787,477.348,190.205z M464.122,190.205c0-13.118-10.685-23.803-23.803-23.803
			s-23.803,10.686-23.803,23.803s10.685,23.803,23.803,23.803S464.122,203.322,464.122,190.205z"/>
		<path class="st0" d="M552.665,211.257l-4.76,15.976l-9.733-13.542l-14.706-20.207l-14.599,20.207l-9.732,13.436l-4.761-15.87
			l-17.244-58.081h13.752l13.331,44.645l11.214-15.552l2.116-2.961l6.03-8.251l6.03,8.251l2.116,2.961l11.214,15.552l13.328-44.645
			h13.755L552.665,211.257z"/>
		<path class="st0" d="M637.397,173.702v-0.424c0-3.702-3.069-6.771-6.771-6.771h-30.044c-3.704,0-6.771,3.069-6.771,6.771v0.424
			c0,3.702,3.067,6.771,6.771,6.771h26.659c6.876,0,13.012,2.961,17.243,7.617c0.318,0.316,0.529,0.635,0.848,0.951
			c3.28,4.02,5.29,9.205,5.29,14.811c0,12.907-10.475,23.381-23.381,23.381h-23.168c-12.907,0-23.381-10.475-23.381-23.381h13.225
			c0,5.609,4.548,10.156,10.156,10.156h23.168c5.606,0,10.262-4.548,10.262-10.156c0-5.606-4.655-10.156-10.262-10.156h-26.659
			c-5.396,0-10.264-2.116-13.86-5.606c-0.951-0.951-1.799-2.01-2.54-3.174c-2.221-3.172-3.491-7.087-3.491-11.318v-0.424
			c0-11.002,8.886-19.996,19.89-19.996h30.044c11.002,0,19.996,8.994,19.996,19.996v0.424L637.397,173.702z"/>
		<path class="st0" d="M732.603,190.205c0,20.418-16.608,37.028-37.028,37.028c-20.418,0-37.026-16.611-37.026-37.028
			s16.608-37.028,37.026-37.028C715.995,153.176,732.603,169.787,732.603,190.205z M719.38,190.205
			c0-13.118-10.686-23.803-23.805-23.803c-13.118,0-23.803,10.686-23.803,23.803s10.686,23.803,23.803,23.803
			C708.694,214.008,719.38,203.322,719.38,190.205z"/>
		<path class="st0" d="M814.694,153.176v13.225h-54.061c-3.702,0-6.771,3.067-6.771,6.771v6.876h47.606v13.225h-47.712v33.959
			h-13.12v-54.061c0-11.002,8.889-19.996,19.891-19.996H814.694z"/>
		<path class="st0" d="M899.106,153.284v13.223h-30.363v60.831H855.52v-60.831h-30.363v-13.223H899.106z"/>
	</g>
	<g>
		<path class="st0" d="M458.056,255.741h-7.25v-1.543h16.229v1.543h-7.281v20.055h-1.697V255.741z"/>
		<path class="st0" d="M470.243,254.198h1.667v9.41h12.958v-9.41h1.666v21.598h-1.666v-10.645H471.91v10.645h-1.667V254.198z"/>
		<path class="st0" d="M505.57,265.183h-11.014v9.07h12.063l-0.247,1.543H492.89v-21.598h13.236v1.543h-11.57v7.898h11.014V265.183z
			"/>
		<path class="st0" d="M518.899,254.198h7.158c5.924,0,10.027,4.135,10.027,10.614c0,6.448-4.011,10.983-10.058,10.983h-7.127
			V254.198z M520.565,274.253h5.214c5.708,0,8.516-4.011,8.516-9.349c0-4.751-2.53-9.163-8.516-9.163h-5.214V274.253z"/>
		<path class="st0" d="M542.842,268.329l-2.746,7.467h-1.697l7.929-21.598h1.975l8.269,21.598h-1.82l-2.808-7.467H542.842z
			 M551.388,266.787c-2.407-6.418-3.641-9.503-4.073-10.953h-0.031c-0.524,1.635-1.913,5.461-3.857,10.953H551.388z"/>
		<path class="st0" d="M562.094,255.741h-7.25v-1.543h16.229v1.543h-7.281v20.055h-1.697V255.741z"/>
		<path class="st0" d="M574.065,268.329l-2.746,7.467h-1.697l7.929-21.598h1.975l8.269,21.598h-1.82l-2.808-7.467H574.065z
			 M582.612,266.787c-2.407-6.418-3.641-9.503-4.073-10.953h-0.031c-0.524,1.635-1.913,5.461-3.857,10.953H582.612z"/>
		<path class="st0" d="M599.643,254.198h7.158c5.924,0,10.027,4.135,10.027,10.614c0,6.448-4.011,10.983-10.058,10.983h-7.127
			V254.198z M601.309,274.253h5.214c5.708,0,8.516-4.011,8.516-9.349c0-4.751-2.53-9.163-8.516-9.163h-5.214V274.253z"/>
		<path class="st0" d="M639.722,264.843c0,5.894-3.147,11.262-9.812,11.262c-6.078,0-9.626-4.905-9.626-11.107
			c0-6.108,3.425-11.107,9.842-11.107C636.05,253.89,639.722,258.549,639.722,264.843z M622.073,264.904
			c0,4.968,2.746,9.657,7.93,9.657c5.584,0,7.929-4.566,7.929-9.688c0-5.029-2.653-9.441-7.868-9.441
			C624.511,255.433,622.073,260.03,622.073,264.904z"/>
		<path class="st0" d="M652.494,275.796v-21.598h2.468c3.363,5.184,11.262,17.247,12.619,19.592h0.031
			c-0.185-3.116-0.154-6.294-0.154-9.811v-9.781h1.697v21.598h-2.283c-3.209-4.998-11.231-17.556-12.773-19.932h-0.031
			c0.154,2.839,0.124,5.986,0.124,9.904v10.027H652.494z"/>
		<path class="st0" d="M693.344,264.843c0,5.894-3.147,11.262-9.812,11.262c-6.078,0-9.626-4.905-9.626-11.107
			c0-6.108,3.424-11.107,9.842-11.107C689.672,253.89,693.344,258.549,693.344,264.843z M675.696,264.904
			c0,4.968,2.746,9.657,7.93,9.657c5.584,0,7.929-4.566,7.929-9.688c0-5.029-2.653-9.441-7.868-9.441
			C678.133,255.433,675.696,260.03,675.696,264.904z"/>
		<path class="st0" d="M701.983,255.741h-7.25v-1.543h16.229v1.543h-7.281v20.055h-1.697V255.741z"/>
		<path class="st0" d="M722.192,254.198h1.666v20.055h11.601l-0.309,1.543h-12.958V254.198z"/>
		<path class="st0" d="M740.458,254.198v21.598h-1.667v-21.598H740.458z"/>
		<path class="st0" d="M759.494,265.183h-11.015v9.07h12.064l-0.247,1.543h-13.483v-21.598h13.236v1.543h-11.57v7.898h11.015
			V265.183z"/>
	</g>
</g>
<g>
	<polygon class="st1" points="126.762,273.318 93.353,373.884 192.397,373.884 161.985,273.318 157.024,273.318 	"/>
	<g>
		<path class="st2" d="M156.626,344.475c-7.227,0-13.086,5.859-13.086,13.086c0,1.269,0.19,2.492,0.527,3.652
			c1.582,5.448,6.601,9.434,12.559,9.434s10.977-3.986,12.559-9.434c0.337-1.16,0.527-2.383,0.527-3.652
			C169.713,350.333,163.854,344.475,156.626,344.475z"/>
		<path class="st2" d="M130.406,317.944c-4.845,0-8.773,3.928-8.773,8.773c0,0.851,0.127,1.671,0.353,2.449
			c1.061,3.652,4.425,6.324,8.42,6.324s7.359-2.672,8.42-6.324c0.226-0.778,0.353-1.598,0.353-2.449
			C139.179,321.872,135.251,317.944,130.406,317.944z"/>
		<path class="st2" d="M136.748,297.62c-2.358,0-4.269,1.911-4.269,4.269c0,0.414,0.062,0.813,0.172,1.192
			c0.516,1.777,2.153,3.078,4.097,3.078s3.581-1.3,4.097-3.078c0.11-0.379,0.172-0.778,0.172-1.192
			C141.017,299.531,139.106,297.62,136.748,297.62z"/>
	</g>
	<ellipse class="st3" cx="142.875" cy="373.884" rx="49.522" ry="7.885"/>
</g>
<path class="st0" d="M214.063,156.526c-0.003,0.077-0.003,0.154-0.006,0.231c-18.401,10.874-42.624,17.49-69.181,17.49
	s-50.78-6.616-69.181-17.49c-0.004-0.077-0.003-0.154-0.006-0.231C30.599,164.179,0,179.08,0,196.209
	c0,16.236,27.496,30.468,68.762,38.426c22.12,4.266,48.191,6.73,76.114,6.73c27.922,0,53.994-2.464,76.113-6.73
	c41.265-7.958,68.762-22.19,68.762-38.426C289.751,179.08,259.152,164.179,214.063,156.526z"/>
<path class="st4" d="M144.875,87.516c-35.458,0-64.202,28.744-64.202,64.201c0,0.944,0.03,1.88,0.071,2.814
	c0.003,0.071,0.002,0.143,0.006,0.214c17.056,10.079,39.509,16.212,64.125,16.212s47.069-6.132,64.125-16.212
	c0.003-0.071,0.003-0.143,0.006-0.214c0.041-0.934,0.071-1.87,0.071-2.814C209.077,116.26,180.333,87.516,144.875,87.516z"/>
<ellipse class="st5" cx="144.188" cy="209.836" rx="14.439" ry="8.779"/>
<ellipse transform="matrix(0.9545 -0.2981 0.2981 0.9545 -48.6578 77.7823)" class="st4" cx="230.677" cy="198.414" rx="14.439" ry="8.779"/>
<ellipse transform="matrix(0.2981 -0.9545 0.9545 0.2981 -148.894 194.3445)" class="st6" cx="57.699" cy="198.414" rx="8.779" ry="14.439"/>
<path class="st0" d="M77.039,239.72c4.036,21.298,32.858,37.815,67.837,37.815c34.978,0,63.8-16.517,67.837-37.815
	c-19.714,3.802-42.951,5.998-67.837,5.998C119.989,245.718,96.753,243.522,77.039,239.72z"/>
<path class="st0" d="M146.526,95.024h-3.302c-2.332,0-4.24-1.908-4.24-4.24v-6.537c0-2.332,1.908-4.24,4.24-4.24h3.302
	c2.332,0,4.24,1.908,4.24,4.24v6.537C150.766,93.116,148.858,95.024,146.526,95.024z"/>
<path class="st0" d="M143.703,81.089c0,0-5.092-56.547,38.032-55.623c0,0-37.685-3.789-35.936,55.623H143.703z"/>
<circle class="st0" cx="178.241" cy="25.418" r="6.771"/>
<path class="st0" d="M180.239,15.291V0h-2.779v15.291c0.455-0.062,0.917-0.105,1.389-0.105S179.784,15.229,180.239,15.291z"/>
<path class="st0" d="M177.461,35.545v15.742h2.779V35.545c-0.456,0.062-0.917,0.105-1.39,0.105S177.916,35.607,177.461,35.545z"/>
<path class="st0" d="M187.089,19.369l10.876-10.876L196,6.529l-10.843,10.843C185.888,17.946,186.537,18.619,187.089,19.369z"/>
<path class="st0" d="M188.942,27.033h15.551v-2.779h-15.483c0.043,0.383,0.071,0.77,0.071,1.164
	C189.082,25.969,189.026,26.506,188.942,27.033z"/>
<path class="st0" d="M172.543,17.372L161.699,6.529l-1.965,1.965l10.876,10.876C171.162,18.619,171.811,17.947,172.543,17.372z"/>
<path class="st0" d="M184.898,33.657L196,44.758l1.965-1.965l-11.068-11.068C186.321,32.457,185.649,33.106,184.898,33.657z"/>
<path class="st0" d="M87.262,146.043c-0.019-1.132-0.173-27.883,23.667-42.452l2.614,4.277
	c-21.345,13.045-21.272,37.849-21.269,38.099L87.262,146.043z"/>
<rect x="114.579" y="100.709" transform="matrix(0.8579 -0.5137 0.5137 0.8579 -36.453 74.6007)" class="st0" width="4.178" height="5.012"/>
<path class="st0" d="M156.901,153.904c-0.58-0.522-1.033-1.12-1.564-1.699c1.765-1.356,2.949-2.718,3.698-5.047
	c0.33-1.09,1.728-3.073,2.242-4.578l-0.024,0.412c0.505-1.39,0.465-2.917,0.886-4.343c0.456-1.511,0.708-3.013,1.128-4.439
	c0.705-2.309,0.781-4.791,1.532-6.98l-0.169-3.999c-0.072-2.143-0.397-4.399-1.04-6.39c-0.547-1.747-1.413-4.841-3.41-5.107
	c-2.505-0.488-3.574,1.965-5.289,3.129c-0.997,0.672-1.943,0.764-2.808,1.594c-0.707,0.698-1.076,1.544-1.698,2.279
	c-0.928,1.206-2.287,3.633-3.934,3.719c-1.236,0.067-1.645-0.615-2.763,0.105c-1.118,0.72-1.085,1.338-2.661,1.255
	c-1.574-0.082-3.044-1.326-4.656-1.323c-1.239-0.055-2.043,0.83-3.228,0.58c-0.911-1.047-2.12-2.142-3.104-3.137
	c-1.396-1.414-2.429-2.971-3.814-4.179c-1.435-1.329-7.294-5.894-7.805-1.489c-0.25,1.501,0.583,3.977,0.79,5.578
	c0.314,2.048,1.137,4.319,1.574,6.32c0.946,3.833,0.123,7.803,0.984,11.599c0.825,3.881,3.048,6.862,4.881,10.277
	c1.653,3.135,4.867,4.535,7.727,6.286c0.347,0.202,0.712,0.439,1.088,0.686c-0.927,0.715-4.864,8.928-7.737,15.184
	c5.382,0.617,10.908,0.954,16.556,0.954c6.369,0,12.59-0.416,18.615-1.197c-0.804-3.05-1.669-8.735-3.286-10.586
	C157.899,157.496,157.071,156.421,156.901,153.904z"/>
<path class="st7" d="M147.737,133.591c2.448-0.156,3.652,2.127,3.652,2.127c0.677,1.29-0.122,2.523-0.122,2.523
	c-1.62,2.635-4.732,1.701-4.732,1.701c-1.997-0.544-2.366-2.089-2.366-2.089C144.085,133.857,147.737,133.591,147.737,133.591z"/>
<path d="M145.815,135.845c-0.466,1.07-0.011,2.302,1.018,2.75c1.03,0.449,2.241-0.057,2.707-1.127
	c0.466-1.069,0.011-2.3-1.019-2.749C147.493,134.271,146.281,134.777,145.815,135.845z"/>
<path class="st0" d="M147.65,135.744c-0.002,0.268,0.204,0.488,0.462,0.491c0.257,0.003,0.469-0.214,0.472-0.481
	c0.002-0.268-0.206-0.488-0.464-0.49C147.863,135.262,147.653,135.477,147.65,135.744z"/>
<path class="st7" d="M127.784,136.839c-0.692,1.588-0.09,3.383,1.347,4.009c1.438,0.626,3.162-0.154,3.854-1.743
	s0.089-3.383-1.348-4.009C130.2,134.469,128.476,135.25,127.784,136.839z"/>
<path d="M128.852,137.044c-0.471,1.081-0.092,2.289,0.848,2.698c0.941,0.41,2.086-0.134,2.557-1.215
	c0.472-1.082,0.09-2.29-0.851-2.7C130.466,135.417,129.324,135.961,128.852,137.044z"/>
<path class="st0" d="M131.133,136.889c-0.091,0.21,0.005,0.454,0.216,0.546c0.21,0.092,0.453-0.004,0.545-0.214
	c0.092-0.211-0.003-0.455-0.213-0.546C131.469,136.583,131.225,136.678,131.133,136.889z"/>
<path class="st8" d="M140.542,144.335l-0.121,0.048c-0.269,0.386-0.765,0.371-1.118,0.72c-0.792,0.662-0.553,1.269-1.212,2.088
	c-0.806,1.158-1.13,0.514-1.802-0.482c-0.635-1.082-0.779-1.447-2.131-2.036C134.567,143.039,139.395,143.734,140.542,144.335z"/>
<path class="st8" d="M136.074,151.004c0.833-0.71,1.812-1.592,1.14-2.74c-0.113-0.194,0.504-0.604,0.604-0.432
	c0.301,0.511,0.323,0.981,0.175,1.421c-0.154,1.076,1.249,1.45,2.086,1.767c0.949,0.36,1.855,0.801,2.846,1.048
	c2.255,0.562,4.404-0.068,5.66-2.087c0.034-0.053,0.585,0.406,0.491,0.556c-1.559,2.511-4.359,2.703-6.926,1.721
	c-1.099-0.421-2.304-0.828-3.315-1.431c-0.417-0.247-0.847-0.607-1.109-1.036c-0.769,1.169-2.553,2.136-3.101,3.147
	c-0.091,0.169-0.736,0.48-0.551,0.136C134.535,152.224,135.353,151.619,136.074,151.004z"/>
<path class="st0" d="M187.573,129.587c-7.367,0.715-12.428,5.913-11.478,13.458c1.097,8.701,2.91,21.623-7.687,26.031
	c-2.637,1.097,0.018,3.132,2.071,2.077c5.571-2.863,10.041-6.01,11.244-12.177c0.66-3.382,0.562-6.792,0.041-10.185
	c-0.935-6.091-3.234-13.822,5.809-14.701C190.431,133.812,190.46,129.306,187.573,129.587L187.573,129.587z"/>
</svg>